<svg xmlns="http://www.w3.org/2000/svg" width="130.237" height="226.284" viewBox="0 0 34.459 59.871"><g data-name="Layer 9" style="display:inline"><path d="M243.7 33.98c10.69 10.2 12.81 24.65 6.98 38.13 2.17-.34 4.46-.5 6.64-.27 33.34 3.63 58.5 36.08 38.72 67.77-1.15 1.85-5.56 5.43-5.36 7.76l21.53 48.41c6 3.89 16.42 6.58 15.58 15.59-.13 1.36-1.16 4.23-2.17 5.17-2.4 2.22-7.77 4.02-10.94 5.05-5.15 1.68-12.06 3.46-17.35 4.37-6.61 1.13-12.14 2.22-16.27-4.16-3.92-6.05-7.04-14.86-10.53-21.42-.42-.78-1.26-.87-1.6-1.5-4.33-8.23-7.94-16.9-12.8-24.88-1.46.93-.72 1.19-.7 2.12.28 15.78 4.15 32.21 4.7 47.72.37 10.3.42 10.97-8.17 15.67-6.95 3.81-18.21 8.58-26.4 9.81-6.26.94-11.67-3.22-11.65-9.78.02-5.04 7.11-12.92 6.91-15.66-.09-1.3-1.37-3.14-1.68-4.93-4.41-25.19-8.65-50.44-13.62-75.51-7.05.66-13.29-1.13-17.85-6.54-8.15-9.66-8.27-24.71-2.85-35.67 4.4-8.9 11.51-13.27 19.99-17.84-7.89-6.26-13.35-14.13-14.06-24.49-1.9-28.03 32.44-44.49 52.95-24.92m-2.16 2.88c-20.03-19.34-52.67-.31-46.16 26.8 1.44 6 5.6 12.39 10.78 15.65.95.6 7.76 4 8.11 3.72 2.44-5.78 6.52-14.23 13.1-15.72 5.34-1.2 11.18 3.63 11.7 8.82.19 1.92-.92 4.19-.26 6.01.85 2.38 2.39 2.92 3.29 4.73 1.67 3.35.67 8.19 1.14 11.8-10 16.13-11.09 32.45-30.21 42.49-1.47.77-3.53.09-4.33 1.86l15.4 83.31c-2.07 4.95-6.37 7.3-6.51 13.04-.07 2.72 1.11 6.4 4.29 6.56 4.88.26 20.91-5.3 25.78-7.65 5.54-2.66 9.61-4.48 9.26-11.18-.79-15.16-4.3-30.84-4.83-46.18-.08-2.39-1.22-15.8 4.27-12.62.47.27 5.1 7.82 5.84 9.07 5.71 9.67 10.39 20.82 15.75 30.83 1.23 2.3 6.98 13.68 8.1 14.5 1.71 1.24 13.01-.55 15.62-1.19 3.47-.84 20.44-6.06 21.74-7.93 1.56-2.23.31-7.09-1.65-8.8-1.7-1.49-5.55-2.3-7.2-3.19-.91-.49-1.1-2.28-3.5-1.85-14.23-27.06-24.7-56.7-38.46-83.86l-6.64-15.04c.22-.81 1.65-.33 2.19 0 1.19.71 6.45 10.71 7.54 12.84 4.05 7.85 9.01 18.2 12.27 26.35.27.69.13 1.3-.17 1.93 2.82 1.55 6.3-7.07 7.93-8.59 14.82-32.79-18.08-62.7-50.11-57.18l-1.49-.82c8.53-11.88 8.21-28.08-2.59-38.51zm-7.76 35.42c-.45-.45-5.41-1.6-6.45-1.21-1.33.5-4.87 4.07-5.77 5.25-6.06 8.01-10.93 21.33-16.13 30.24-.95 1.62-3.29 5.92-5.31 5.58-1.23-.74-1-1.79-.61-2.89 1.81-5.11 6.63-10.1 8.3-15.44l5.02-9.31c-19.71 4.73-34.69 23.16-26.12 43.94 5.57 13.5 16.99 14.13 28.5 6.98 12.03-7.48 14.34-17.81 19.67-29.97 2.18-4.96 5.87-7.31 4.57-13.69-.22-1.07-1.91-5.51-2.52-6.07-1.66-1.49-3.77 1.43-2.95-3.69.25-1.57 1.46-2.63 1.4-4.34-.02-.51-1.4-5.17-1.6-5.37z" class="cls-13" style="fill:#006838" transform="rotate(16 56.067 -140.687)scale(.26458)"/><path d="M222.23 249.95c-.19 0-.38 0-.55-.01-5.46-.29-8.2-5.58-8.07-10.66.12-4.8 2.43-7.93 4.29-10.44.76-1.02 1.48-2 2.05-3.06l-15.4-83.26.51-1.14c1.41-3.13 4.38-3.55 5.65-3.73.19-.03.44-.06.57-.09 12.06-6.37 16.19-15.51 20.97-26.09 2.02-4.47 4.1-9.08 6.9-13.76-.06-1.09-.04-2.19-.03-3.26.03-2.21.06-4.49-.59-5.79-.12-.25-.35-.49-.76-.94-.83-.88-1.96-2.1-2.72-4.23-.73-2.04-.39-4.02-.14-5.47.09-.51.21-1.22.19-1.49-.27-2.68-3.31-5.4-6.03-5.4q-.42 0-.81.09c-5.15 1.16-9.02 10.35-10.3 13.37l-.41.96-1.91 1.48-1.44.02c-2.49 0-10.1-4.31-10.17-4.35-5.86-3.69-10.78-10.79-12.54-18.11-2.36-9.84-.33-19.49 5.74-27.18 6.14-7.79 15.63-12.44 25.39-12.44 8.09 0 15.59 3.12 21.7 9.01 10.13 9.79 12.51 24.75 6.61 37.61q1.23-.06 2.46-.06c17.22 0 34.19 9.06 43.23 23.07 7.97 12.35 8.95 26.71 2.75 40.42l-.33.73-.52.48c-.26.33-.86 1.34-1.3 2.08-1.75 2.94-3.68 6.19-6.46 7.37 1.19 2.75 2.38 5.5 3.55 8.22 6.03 13.99 12.25 28.45 19.28 42.03 1.75.52 2.77 1.68 3.28 2.33.43.17 1.04.39 1.56.57 2.02.71 4.32 1.51 5.96 2.95 3.4 2.96 5.12 10.05 2.3 14.1-2.71 3.89-23.86 9.47-24.07 9.52-2.12.52-9.39 1.72-13.82 1.72-2.42 0-3.94-.36-5.08-1.19-1.22-.88-2.24-2.3-8.2-13.77l-1.08-2.07c-2.25-4.21-4.41-8.66-6.49-12.96-2.9-5.99-5.91-12.19-9.17-17.72-.46-.78-1.64-2.7-2.78-4.52-.04 1.26-.03 2.92.08 5.08.02.34.03.62.04.82.27 7.87 1.38 16.05 2.44 23.96.98 7.27 2 14.79 2.38 22.15.48 9.23-5.73 12.22-11.21 14.85l-.31.15c-4.83 2.32-20.91 8.05-27.17 8.05z" class="cls-13" style="fill:#006838" transform="rotate(16 56.067 -140.687)scale(.26458)"/><path d="M225.41 251.85c-.27 0-.52 0-.77-.02-7.07-.37-12.06-6.57-11.86-14.75.15-6.07 2.99-9.91 5.07-12.72.38-.51.74-1 1.06-1.46l-15.34-82.98 1.02-2.28c1.51-3.37 4.4-5.4 8.57-6.03 9.93-5.45 12.94-12.67 17.07-22.57 1.83-4.38 3.87-9.28 6.74-14.27.09-1.47.32-2.87.54-4.17.12-.73.29-1.74.35-2.43-.95-1.03-2.42-2.69-3.4-5.44-1.09-3.03-.6-5.83-.31-7.5.03-.18.07-.4.1-.58-.27-.67-1.4-1.63-2-1.63-.67.16-3.39 1.44-7.42 11.01l-.81 1.93-3.82 2.97-2.81.02c-4.01 0-12.22-4.92-12.3-4.97-6.7-4.21-12.31-12.28-14.3-20.56-2.66-11.05-.35-21.92 6.48-30.59 6.89-8.74 17.56-13.97 28.53-13.97 9.15 0 17.61 3.5 24.48 10.14 9.93 9.59 13.24 23.57 9.55 36.53 17.4 1.06 34.15 10.56 43.34 24.8 8.73 13.53 9.81 29.24 3.04 44.23l-.66 1.46-.79.74c-.23.36-.61 1-.9 1.49-1.29 2.17-2.83 4.77-4.93 6.74.75 1.75 1.51 3.49 2.25 5.22 5.81 13.49 11.8 27.4 18.49 40.49.98.51 1.88 1.2 2.71 2.05.19.07.39.14.56.2 2.25.79 5.05 1.76 7.28 3.71 4.74 4.14 7.06 13.51 2.95 19.4-1.63 2.33-4.04 3.94-14.04 7.34-4.95 1.68-10.27 3.27-12.37 3.78-2.57.62-10.11 1.84-14.77 1.84-2.35 0-5.06-.23-7.43-1.95-1.98-1.44-3.08-3.01-9.39-15.16-.47-.9-.84-1.62-1.06-2.04-2.29-4.28-4.46-8.76-6.56-13.1-1.11-2.29-2.23-4.61-3.38-6.91.45 4.09 1 8.2 1.55 12.24.99 7.35 2.02 14.96 2.41 22.47.62 11.9-7.86 15.97-13.48 18.67l-.31.15c-4.52 2.17-21.47 8.44-28.9 8.45z" class="cls-13" style="fill:#006838" transform="rotate(16 56.067 -140.687)scale(.26458)"/><path d="M251.06 34.76c10.8 10.43 11.12 26.64 2.59 38.51l1.49.82c32.03-5.53 64.93 24.39 50.11 57.18-1.63 1.52-5.11 10.14-7.93 8.59.3-.64.44-1.25.17-1.93-3.25-8.15-8.22-18.5-12.27-26.35-1.1-2.12-6.35-12.12-7.54-12.84-.54-.32-1.97-.8-2.19 0l6.64 15.04c13.76 27.16 24.23 56.79 38.46 83.86 2.39-.42 2.58 1.36 3.5 1.85 1.65.9 5.5 1.71 7.2 3.19 1.96 1.71 3.21 6.57 1.65 8.8-1.3 1.86-18.26 7.08-21.74 7.93-2.61.63-13.91 2.42-15.62 1.19-1.12-.82-6.87-12.19-8.1-14.5-5.36-10.01-10.03-21.16-15.75-30.83-.74-1.24-5.37-8.8-5.84-9.07-5.49-3.18-4.35 10.23-4.27 12.62.53 15.34 4.04 31.01 4.83 46.18.35 6.7-3.72 8.52-9.26 11.18-4.88 2.34-20.91 7.9-25.78 7.65-3.18-.17-4.35-3.84-4.29-6.56.14-5.74 4.44-8.09 6.51-13.04l-15.4-83.31c.79-1.77 2.86-1.09 4.33-1.86 19.11-10.04 18.78-26 28.78-42.12-.47-3.61 1.96-8.81.29-12.16-.9-1.81-2.44-2.35-3.29-4.73-.65-1.82.46-4.09.26-6.01-.52-5.19-6.36-10.02-11.7-8.82-6.58 1.48-10.67 9.93-13.1 15.72-.35.27-7.16-3.12-8.11-3.72-5.18-3.26-9.34-9.66-10.78-15.65-6.52-27.11 26.13-46.14 46.16-26.8z" class="cls-4" style="fill:#4cbd97" transform="rotate(16 56.067 -140.687)scale(.26458)"/><path d="M201.62 143.93c-8.29 0-14.9-4.96-18.61-13.98-3.98-9.65-3.69-19.45.85-28.33 5.21-10.2 15.69-18.05 28.04-21.02l2.51-.6c1.26-2.2 2.58-4.26 3.96-6.1.41-.54 4.75-5.54 7.55-6.59.61-.23 1.26-.33 2.05-.33.63 0 6.7.54 8.63 2.46 1.55 1.54 2.76 7.8 2.77 8.05.07 1.92-.59 3.35-1.07 4.32.47.23.9.53 1.31.89 1.96 1.76 3.75 8.18 3.76 8.24 1.24 6.07-1.08 9.76-2.94 12.74-.7 1.12-1.36 2.17-1.88 3.36-.9 2.06-1.73 4.1-2.53 6.06-3.93 9.68-7.65 18.83-18.69 25.7-5.47 3.4-10.75 5.13-15.69 5.13z" class="cls-13" style="fill:#006838" transform="rotate(16 56.067 -140.687)scale(.26458)"/><path d="M204.17 145.66c-6.7 0-12.7-2.71-17.36-7.84-6.16-6.78-9.23-17.18-8.21-27.81l.02-.2c1.84-15.14 13.01-28.17 29.16-34.02l.37-.13.19-.05.16-.06c.98-.35 2.62-.94 4.56-.94.19 0 .37 0 .56.02 4.68-7.94 10.21-13.93 18-13.93 2.95 0 5.81.92 8.48 2.74l.6.41.64.63c3.23 3.2 4.55 8.23 3.65 13.86.15.16.31.34.46.52 3.34 3.81 4.6 9.67 4.37 13.84-.32 4.91-2.42 8.63-4.1 11.61-.71 1.26-1.39 2.46-1.78 3.49l-.04.1c-4.98 12.61-10.63 26.89-26.08 34.15-4.61 2.4-9.2 3.61-13.63 3.61z" class="cls-13" style="fill:#006838" transform="rotate(16 56.067 -140.687)scale(.26458)"/><path d="M239.83 70.16c1.66 1.65 1.78 4.72 1.31 7.26-.17 1.13-.48 2.35-.19 3.45.38 1.39 1.67 2.14 2.55 3.21 1.61 1.79 2.6 5.39 2.44 8.18-.31 4.76-3.72 8.35-5.37 12.7-4.94 12.49-9.72 24.13-22.19 29.92-18.27 9.61-29.31-7.42-27.7-24.1 1.59-13.06 11.73-23.04 23.94-27.47.9-.23 3.25-1.44 3.37-.02-.07 1.43-2.5 5.16-3.43 7.28-1.13 2.32-2.2 4.66-3.61 6.96-1.75 3.2-4.3 6.03-4.74 9.54-.07 1.12.61 1.92 1.84 1.26 8.71-5.83 17.96-47.62 31.66-38.29z" class="cls-4" style="fill:#4cbd97" transform="rotate(16 56.067 -140.687)scale(.26458)"/></g></svg>